<?xml version="1.0" encoding="UTF-8"?>
<svg id="Layer_2" data-name="Layer 2" xmlns="http://www.w3.org/2000/svg" viewBox="0 0 131.32 131.32">
  <defs>
    <style>
      .cls-1 {
        fill: #2d2d2d;
        stroke-width: 0px;
      }

      .cls-2 {
        fill: none;
        stroke: #2d2d2d;
        stroke-linecap: round;
        stroke-linejoin: round;
        stroke-width: 2px;
      }
    </style>
  </defs>
  <g id="Icons">
    <g>
      <path class="cls-2" d="m1.41,73c-.27-2.41-.41-4.86-.41-7.34C1,29.95,29.95,1,65.66,1s63.37,27.67,64.62,62.28h0"/>
      <path class="cls-2" d="m130.1,71.11c-1.93,23.16-16.06,42.85-35.95,52.62-2.57,1.27-5.24,2.36-8,3.28,0,0,0,0,0,0-6.44,2.15-13.32,3.31-20.48,3.31-29.08,0-53.68-19.2-61.81-45.61"/>
      <path class="cls-2" d="m1.41,72.99c2.62,2.27,6.83,5.18,12.31,5.79,12.88,1.42,16.83-11.68,32.26-14.32,13.86-2.38,17.35,7.05,32.49,3.21,8.15-2.06,9.7-5.45,16.65-5.02,8.56.53,11.4,6,19.5,6.36,6.17.28,11.55-2.58,15.71-5.76"/>
      <path class="cls-2" d="m3.85,84.71s15.44,4.83,31.6-6.51c16.15-11.33,21.15,1.16,31.59-.36s17.59-12.38,17.59-12.38"/>
      <path class="cls-2" d="m13.93,85.69s7.53,4.69,16.52,3.26c9.3-1.47,12.75-4.53,16.96-4.37,6.84.26,9.25,4.69,18.46,3.97,9.21-.71,19.21-15.08,27.24-15.08s15.9,7.94,24.29,6.25c8.38-1.7,8.92-8.03,12.93-8.66"/>
      <path class="cls-2" d="m28.71,105.2s13.3-14.56,23.41-5.14c.37.35.39.93.05,1.31-2.1,2.25-9.93,8.49-23.45-4.97"/>
      <path class="cls-2" d="m47.41,117.39s10.25-11.22,18.12-4.16c.39.35.4.96.03,1.33-1.85,1.87-7.91,6.15-18.15-4.05"/>
      <path class="cls-2" d="m86.14,127.01c1.24-2.03,2.69-5.12,1.66-7.61-.61-1.45-2.12-2.18-3.51-2.79-1.97-.95-4.78-.54-5.26-2.48-.32-2.05,2.42-2.28,3.92-2.5,7.93-1.16-13.9-5.85-11.39-10.34,1.99-3.74,6.43,2.62,7.75.26.64-1.82-.49-4.22.39-5.98.45-.81,1.44-1.17,2.27-.99,4.23,1.46,4.51,12.02,6.79,13.91.83.67,1.91-.47,2.23-1.25,3.12-5.08-10.63-21.84-3.83-22.25,1.99.18,2.4,2.74,2.94,4.38.88,3.16,1.51,1.08,2.03-1.33.64-2.37,1.17-6.08,3.75-7.06.8-.21,1.49-.09,1.83.53,1.93,2.45-6.17,18.9-.8,18.55,4.86-.3,2.24-8.86,6.08-9.61,4.87-.36-1.92,9.4,3.32,5.04.93-.69,2.18-1.24,3.29-.82.67.29,1.18.71.93,1.3-.44,1.02-4.87,2.77-8.14,5.24-2.05,1.48-3.82,3.17-5.35,5.19-.57.71-2,2.89-1.6,3.24.15.14.55-.06.76-.17,2.3-1.11,6.18-1.04,7.1.39.39.6.2,1.36.18,1.45-.69,2.63-6.75,1.47-8.94,4.62-1.08,1.55-1.48,3.95-.42,7.78"/>
      <path class="cls-2" d="m72.67,43.01c-10.68-.41-22.21,2.69-31.11,9.78-.84.67-1.95-.38-1.33-1.26,5.88-8.34,15.66-17.94,31.9-18.28"/>
      <path class="cls-2" d="m26.53,68.92s-4.24,2.59-8.75.58c-4.51-2.01-7.19,1.83-7.19,1.83,0,0,2.66-9.46,15.16-11.21.37-.05.67-.33.76-.69.96-4.01,7.11-26.54,26.26-35.67,4.09-1.95.2-6.91-1.65-8.94-.44-.48-.25-1.25.35-1.48,2.49-.97,8.73-2.05,17.45,5.61.19.16.43.25.67.23,3.76-.25,34.19-1.5,37.27,22.55.02.17.09.33.19.46,1.03,1.28,6.55,8.35,3.47,9.38-.42.14-.89.09-1.3-.08-2.24-.95-12.13-4.96-24.38-7.13"/>
      <path class="cls-2" d="m76.15,37.64s-2.23,1.61-3.48,5.38c-1.25,3.77-5,7.03-5,7.03,0,0,14.46,2.59,18.88-8.84"/>
      <circle class="cls-1" cx="97.06" cy="37.64" r="1.51"/>
    </g>
  </g>
</svg>