<?xml version="1.0" encoding="UTF-8"?>
<svg id="Layer_2" data-name="Layer 2" xmlns="http://www.w3.org/2000/svg" viewBox="0 0 128.99 117.3">
  <defs>
    <style>
      .cls-1 {
        fill: none;
        stroke: #2d2d2d;
        stroke-linecap: round;
        stroke-linejoin: round;
        stroke-width: 2px;
      }
    </style>
  </defs>
  <g id="Icons">
    <g>
      <g>
        <path class="cls-1" d="m49.48,102.16h-30.42c-5.42,0-8.81-5.88-6.08-10.56l13.19-22.71"/>
        <path class="cls-1" d="m49.48,109.76H11.13c-7.79,0-12.66-8.44-8.76-15.18l17.05-29.51-8.34-4.73,21.88-9.94c.55-.25,1.19.09,1.3.69l4.26,24.81-5.71-3.24-9.26,15.93c-1.54,2.65.37,5.97,3.44,5.97h22.49"/>
      </g>
      <g>
        <path class="cls-1" d="m105.01,69.3l11.07,19.18c2.71,4.69-.68,10.56-6.11,10.55l-26.26-.07"/>
        <path class="cls-1" d="m111.41,65.21l15.21,26.34c3.9,6.75-.98,15.18-8.77,15.18h-34.09s.07,9.58.07,9.58l-19.54-13.98c-.49-.35-.52-1.08-.05-1.47l19.36-16.09.05,6.56,18.42.05c3.07,0,4.99-3.31,3.46-5.96l-6.94-12.02"/>
      </g>
      <g>
        <line class="cls-1" x1="50.11" y1="24.78" x2="38.91" y2="44.18"/>
        <path class="cls-1" d="m80.02,39.51l-13.07-22.77c-2.42-4.21-8.12-4.66-11.23-1.32"/>
        <path class="cls-1" d="m43.88,20.38l8.27-14.32c3.9-6.75,13.64-6.75,17.53,0l17.03,29.52,8.27-4.86-2.33,23.91c-.06.6-.67.99-1.24.78l-23.62-8.72,5.66-3.32-9.17-15.98c-1.53-2.66-5.36-2.66-6.89,0l-2.05,3.55h0"/>
        <path class="cls-1" d="m42.06,29.8s3.13,2.64,1.6,6.16c0,0,4.77-3.46,7.42-3.08"/>
      </g>
      <path class="cls-1" d="m55.72,15.41s-27.01,4.4-16.82,28.77c1.97-.36,8.4-1.77,13.14-7.57,7.35-8.98,3.96-20.29,3.67-21.2Z"/>
    </g>
  </g>
</svg>