<?xml version="1.0" encoding="UTF-8"?>
<svg id="Layer_2" data-name="Layer 2" xmlns="http://www.w3.org/2000/svg" viewBox="0 0 130.16 115.23">
  <defs>
    <style>
      .cls-1 {
        fill: none;
        stroke: #2d2d2d;
        stroke-linecap: round;
        stroke-linejoin: round;
        stroke-width: 2px;
      }
    </style>
  </defs>
  <g id="Icons">
    <g>
      <polyline class="cls-1" points="91.13 15.35 101.42 15.35 116.81 28.7"/>
      <polyline class="cls-1" points="13.35 28.7 28.74 15.35 40.82 15.35"/>
      <path class="cls-1" d="m31.38,108.81h-6.49c-3.41,0-6.17-2.76-6.17-6.17v-5.22"/>
      <path class="cls-1" d="m19.35,46.79v-6.49c0-3.41,2.76-6.17,6.17-6.17h5.22"/>
      <path class="cls-1" d="m85.04,28.7h31.77v73.19c0,6.82-5.53,12.35-12.35,12.35h-7.33s-64.11,0-64.11,0h-7.33c-6.82,0-12.35-5.53-12.35-12.35V28.7h31.77"/>
      <path class="cls-1" d="m98.79,108.81h6.49c3.41,0,6.17-2.76,6.17-6.17v-5.22"/>
      <path class="cls-1" d="m110.82,46.79v-6.49c0-3.41-2.76-6.17-6.17-6.17h-5.22"/>
      <path class="cls-1" d="m13.35,28.7L1.26,12.96c-.45-.58-.29-1.42.33-1.8L17.76,1.18c.56-.35,1.3-.19,1.67.36l9.31,13.81"/>
      <path class="cls-1" d="m116.81,28.7l12.1-15.74c.45-.58.29-1.42-.33-1.8L112.4,1.18c-.56-.35-1.3-.19-1.67.36l-9.31,13.81"/>
      <g>
        <path class="cls-1" d="m65.21,47.32l5.14,8.96c.18.31.07.71-.24.89l-1.92,1.12c-.55.32-.37,1.15.26,1.22l12.94,1.38c.28.03.55-.12.67-.38l5.43-12.09c.26-.58-.38-1.15-.93-.83l-3.81,2.22c-.31.18-.72.08-.9-.24l-.95-1.65c-3.88-6.72-11.35-10.53-19.07-9.73h0c-5.92.62-11.25,3.89-14.48,8.89l-4.63,7.17c-.2.32-.1.74.23.92l8.4-.8,4.22,8.01c.31.18.71.07.89-.24l8.75-14.83Z"/>
        <path class="cls-1" d="m65.21,47.32s-4.49-7.35-9.04-7.67"/>
      </g>
      <g>
        <path class="cls-1" d="m87.18,85.83l-10.33-.03c-.36,0-.65-.29-.65-.65v-2.23c-.01-.63-.82-.89-1.19-.38l-7.67,10.52c-.17.23-.17.54,0,.77l7.75,10.75c.37.52,1.19.25,1.19-.39l-.02-4.41c0-.36.29-.66.65-.66h1.91c7.76,0,14.8-4.56,17.96-11.65h0c2.43-5.44,2.26-11.69-.46-16.99l-3.9-7.6c-.17-.33-.59-.46-.91-.27l-3.51,7.67-9.05-.35c-.31.18-.42.58-.24.89l8.47,15Z"/>
        <path class="cls-1" d="m87.18,85.83s8.61-.21,11.16-4"/>
      </g>
      <g>
        <path class="cls-1" d="m42.46,86.28l5.19-8.93c.18-.31.58-.42.89-.24l1.93,1.1c.55.31,1.18-.26.92-.83l-5.28-11.9c-.11-.26-.38-.41-.66-.39l-13.19,1.34c-.63.06-.81.9-.26,1.22l3.83,2.19c.31.18.42.58.24.9l-.96,1.65c-3.88,6.72-3.45,15.09,1.11,21.38h0c3.5,4.82,8.99,7.8,14.94,8.09l8.53.42c.37.02.69-.28.69-.66l-4.89-6.87,4.83-7.66c0-.36-.29-.65-.65-.65l-17.22-.16Z"/>
        <path class="cls-1" d="m42.46,86.28s-4.12,7.56-2.12,11.67"/>
      </g>
      <path class="cls-1" d="m78.12,15.78c-6.29,2.41-9.83,5.73-11.57,9.41h0c-.54,1.14-.9,2.31-1.12,3.51-.58,3.16-.14,6.44.8,9.53"/>
      <path class="cls-1" d="m66.55,25.19s5.99,3.09,10.94.6,7.67-14.31,11.07-14.94c0,0-24.12-6.5-22.01,14.34Z"/>
      <path class="cls-1" d="m65.43,28.7s-9-8.34-11.82-9.72"/>
      <path class="cls-1" d="m61.78,25.41s3.34-14.53-16.82-12.6c0,0,2.98,7.95,3.48,9.28,1.48,3.99,5.9,7.39,13.34,3.31Z"/>
      <g>
        <line class="cls-1" x1="60.07" y1="74.92" x2="70.26" y2="74.92"/>
        <line class="cls-1" x1="65.16" y1="80.02" x2="65.16" y2="69.83"/>
      </g>
    </g>
  </g>
</svg>