<?xml version="1.0" encoding="UTF-8"?>
<svg id="Layer_2" data-name="Layer 2" xmlns="http://www.w3.org/2000/svg" viewBox="0 0 131.31 111.81">
  <defs>
    <style>
      .cls-1 {
        fill: none;
        stroke: #2d2d2d;
        stroke-linecap: round;
        stroke-linejoin: round;
        stroke-width: 2px;
      }
    </style>
  </defs>
  <g id="Icons">
    <g>
      <line class="cls-1" x1="85.3" y1="30.76" x2="85.3" y2="42.67"/>
      <line class="cls-1" x1="90.03" y1="110.81" x2="41.28" y2="110.81"/>
      <polyline class="cls-1" points="51.83 110.81 56.25 94.88 75.06 94.88 79.48 110.81"/>
      <path class="cls-1" d="m86.11,94.88H11.19c-5.63,0-10.19-4.56-10.19-10.19V24.12c0-5.63,4.56-10.19,10.19-10.19h72.51c.44,0,.81-.31.9-.73,1.45-6.97,7.63-12.2,15.02-12.2s13.57,5.23,15.02,12.2c.09.43.47.73.9.73h4.57c5.62,0,10.19,4.56,10.19,10.19v23.82"/>
      <path class="cls-1" d="m92.68,26.8v-12.72c0-3.83,3.11-6.94,6.94-6.94h0c3.74,0,6.78,2.95,6.93,6.65,0,.1,0,.19,0,.29"/>
      <circle class="cls-1" cx="92.68" cy="29.69" r="2.89"/>
      <line class="cls-1" x1="106.57" y1="24.81" x2="106.57" y2="14.08"/>
      <circle class="cls-1" cx="106.57" cy="27.25" r="2.44"/>
      <g>
        <path class="cls-1" d="m78.2,80.82h-25.09c-3.92,0-7.1-3.18-7.1-7.1V30.76c0-3.92,3.18-7.1,7.1-7.1h25.09c3.92,0,7.1,3.18,7.1,7.1"/>
        <path class="cls-1" d="m71.96,70.47h-16.05c-2.39,0-4.32-1.93-4.32-4.32v-29.24c0-2.39,1.93-4.32,4.32-4.32h19.49c2.39,0,4.32,1.93,4.32,4.32v16.78"/>
        <line class="cls-1" x1="61.18" y1="28.48" x2="70.13" y2="28.48"/>
        <line class="cls-1" x1="62.78" y1="75.83" x2="68.53" y2="75.83"/>
      </g>
      <path class="cls-1" d="m1,80.35h34.64c2.18,0,4.27.87,5.81,2.41l2.55,2.55c1.54,1.54,3.63,2.41,5.81,2.41h18.72"/>
      <g>
        <g>
          <path class="cls-1" d="m105.12,49.26l4.01,7c.14.24.06.55-.19.7l-1.5.88c-.43.25-.29.9.2.95l10.11,1.08c.22.02.43-.1.52-.3l4.25-9.45c.2-.45-.29-.9-.72-.65l-2.98,1.74c-.24.14-.56.06-.7-.19l-.75-1.29c-3.03-5.25-8.87-8.23-14.9-7.6h0c-4.63.48-8.79,3.04-11.31,6.95l-3.62,5.61c-.16.25-.08.58.18.72l9.86,5.63c.24.14.55.06.69-.18l6.84-11.59Z"/>
          <path class="cls-1" d="m105.12,49.26s-3.51-5.74-7.07-5.99"/>
        </g>
        <g>
          <path class="cls-1" d="m121.44,77.88l-8.07-.03c-.28,0-.51-.23-.51-.51v-1.74c-.01-.49-.64-.7-.93-.3l-5.99,8.22c-.13.18-.13.42,0,.6l6.06,8.4c.29.4.93.2.93-.3l-.02-3.45c0-.28.23-.51.51-.51h1.49c6.06,0,11.56-3.56,14.03-9.1h0c1.9-4.25,1.76-9.13-.36-13.27l-3.05-5.94c-.13-.26-.46-.36-.71-.21l-9.81,5.72c-.24.14-.33.45-.19.69l6.62,11.72Z"/>
          <path class="cls-1" d="m121.44,77.88s6.73-.17,8.72-3.13"/>
        </g>
        <g>
          <path class="cls-1" d="m88.19,78.23l4.06-6.98c.14-.24.45-.33.7-.19l1.51.86c.43.24.92-.2.72-.65l-4.13-9.3c-.09-.2-.3-.32-.52-.3l-10.3,1.05c-.49.05-.63.71-.2.95l2.99,1.71c.25.14.33.45.19.7l-.75,1.29c-3.03,5.25-2.69,11.79.87,16.7h0c2.73,3.77,7.03,6.09,11.68,6.32l6.66.33c.29.01.54-.22.54-.51l-.05-11.36c0-.28-.23-.51-.51-.51l-13.46-.13Z"/>
          <path class="cls-1" d="m88.19,78.23s-3.22,5.91-1.65,9.12"/>
        </g>
      </g>
      <polyline class="cls-1" points="116.06 13.93 115.55 13.93 106.56 13.93"/>
      <line class="cls-1" x1="92.69" y1="13.93" x2="83.7" y2="13.93"/>
    </g>
  </g>
</svg>