<?xml version="1.0" encoding="UTF-8"?>
<svg id="Layer_2" data-name="Layer 2" xmlns="http://www.w3.org/2000/svg" viewBox="0 0 82.71 125.79">
  <defs>
    <style>
      .cls-1 {
        fill: none;
        stroke: #2d2d2d;
        stroke-linecap: round;
        stroke-linejoin: round;
        stroke-width: 2px;
      }
    </style>
  </defs>
  <g id="Icons">
    <g>
      <line class="cls-1" x1="56.1" y1="50.38" x2="26.6" y2="50.38"/>
      <path class="cls-1" d="m63.44,50.38h12.77c.48,0,.89.37.92.86l4.54,61.48c.48,6.52-4.68,12.07-11.22,12.07H12.25c-6.54,0-11.7-5.56-11.22-12.07l4.53-61.48c.04-.48.44-.86.93-.86h12.77"/>
      <g>
        <path class="cls-1" d="m32.27,101.03c9.24,5.76,8.5,12.72,8.5,12.72,0,0-1.61-10.58,9.1-18.07"/>
        <path class="cls-1" d="m38.22,106.37s4.35-10.51-12.35-9.87c-.22,0-.36.23-.27.43.45,1.03,1.64,3.81,2.32,5.84.97,2.88,3.36,6.87,10.3,3.6Z"/>
        <path class="cls-1" d="m43.08,103.08s-3.1-6.93,2.87-11.29c3.23-2.36,9.33-2.57,10.94-2.59.2,0,.35.19.3.38-.39,1.58-.78,3.16-1.15,4.74-.6,2.56-.96,5.26-2.83,7.26-1.42,1.52-3.4,2.27-5.46,2.3-1.59.03-3.17-.31-4.67-.81Z"/>
      </g>
      <path class="cls-1" d="m26.6,47.46v14.67c0,8.09,6.41,14.85,14.49,14.99,8.26.14,15-6.52,15-14.75v-14.92c0-.51.41-.93.93-.93h5.49c.51,0,.93.41.93.93v10.71c0,12.18-9.74,22.28-21.92,22.37-12.28.09-22.26-9.83-22.26-22.09v-10.99c0-.51.41-.93.93-.93h5.49c.51,0,.93.41.93.93Z"/>
      <path class="cls-1" d="m68.35,50.38l6.72-19.62c.9-2.63-.5-5.49-3.13-6.4l-18.74-6.41c-2.62-.86-5.45.53-6.35,3.15l-10.03,29.28"/>
      <path class="cls-1" d="m51.45,27.46c.09-.49.34-1.41,1.08-2.27.36-.41.74-.7,1.05-.89"/>
      <line class="cls-1" x1="45.8" y1="43.63" x2="50.01" y2="31.34"/>
      <path class="cls-1" d="m55.97,4.34l-4.46,13.03,22.17,7.59,4.5-13.13c.89-2.6-.51-5.42-3.11-6.29l-12.87-4.29c-2.57-.86-5.35.52-6.23,3.09Z"/>
      <line class="cls-1" x1="54.04" y1="9.98" x2="76.21" y2="17.57"/>
    </g>
  </g>
</svg>