<?xml version="1.0" encoding="UTF-8"?>
<svg id="Layer_2" data-name="Layer 2" xmlns="http://www.w3.org/2000/svg" viewBox="0 0 131.32 131.45">
  <defs>
    <style>
      .cls-1 {
        fill: none;
        stroke: #2d2d2d;
        stroke-linecap: round;
        stroke-linejoin: round;
        stroke-width: 2px;
      }
    </style>
  </defs>
  <g id="Icons">
    <g>
      <g>
        <path class="cls-1" d="m66.37,14.07l7.26,12.68c.25.44.1,1-.34,1.26l-2.72,1.59c-.77.45-.52,1.63.37,1.72l18.31,1.95c.4.04.78-.18.94-.54l7.69-17.1c.37-.82-.53-1.63-1.31-1.18l-5.39,3.15c-.44.26-1.01.11-1.27-.34l-1.35-2.34C83.08,5.4,72.51.01,61.59,1.15h0c-8.38.87-15.91,5.5-20.48,12.58l-6.55,10.15c-.29.45-.14,1.04.32,1.31l17.85,10.2c.44.25,1,.1,1.26-.33l12.38-20.99Z"/>
        <path class="cls-1" d="m88.96,23.44c.23-.13.34-.4.27-.65-.22-.78-.86-2.5-2.58-4.17-.62-.6-1.38-1.2-2.31-1.75-1.21-.71-2.71-1.35-4.56-1.79-.3-.07-.6.1-.69.4-.96,3.23-.86,5.79-.37,7.72.59,2.33,1.76,3.74,2.32,4.32.18.19.47.23.7.1l7.22-4.17Z"/>
        <line class="cls-1" x1="81.95" y1="19.63" x2="89.77" y2="33.18"/>
        <path class="cls-1" d="m66.37,14.07s-6.35-10.4-12.79-10.84"/>
      </g>
      <g>
        <path class="cls-1" d="m95.92,65.88l-14.61-.05c-.51,0-.92-.41-.92-.92l-.02-3.15c0-.89-1.15-1.26-1.67-.54l-10.84,14.88c-.24.32-.24.76,0,1.09l10.97,15.21c.53.73,1.68.35,1.68-.55l-.03-6.24c0-.51.41-.93.93-.93h2.7c10.98,0,20.93-6.45,25.4-16.48h0c3.43-7.7,3.19-16.53-.66-24.03l-5.52-10.75c-.24-.47-.83-.64-1.29-.38l-17.76,10.36c-.44.26-.59.81-.34,1.26l11.98,21.22Z"/>
        <path class="cls-1" d="m76.51,80.76c0,.26.18.49.43.55.79.2,2.59.5,4.91-.15.83-.23,1.73-.59,2.67-1.12,1.22-.69,2.52-1.67,3.83-3.05.21-.22.21-.57,0-.79-2.32-2.44-4.59-3.64-6.5-4.18-2.31-.65-4.12-.35-4.91-.15-.25.06-.43.29-.43.55v8.34Z"/>
        <line class="cls-1" x1="83.31" y1="76.59" x2="67.67" y2="76.59"/>
        <path class="cls-1" d="m95.92,65.88s12.18-.3,15.79-5.66"/>
      </g>
      <g>
        <path class="cls-1" d="m35.72,66.52l7.35-12.63c.26-.44.82-.59,1.26-.34l2.73,1.56c.78.44,1.67-.36,1.31-1.18l-7.47-16.83c-.16-.37-.54-.59-.94-.55l-18.66,1.9c-.9.09-1.15,1.28-.37,1.73l5.42,3.1c.45.25.6.82.34,1.27l-1.35,2.34c-5.49,9.51-4.88,21.35,1.57,30.24h0c4.95,6.82,12.72,11.03,21.14,11.45l12.06.6c.53.03.97-.4.97-.93l-.09-20.56c0-.51-.41-.92-.92-.92l-24.37-.23Z"/>
        <path class="cls-1" d="m32.54,42.28c-.23-.13-.51-.09-.7.1-.57.58-1.73,2-2.32,4.32-.21.84-.35,1.79-.36,2.88-.02,1.4.19,3.02.73,4.84.09.29.39.47.69.4,3.28-.79,5.44-2.15,6.87-3.54,1.72-1.68,2.36-3.39,2.58-4.17.07-.25-.04-.52-.27-.65l-7.22-4.17Z"/>
        <line class="cls-1" x1="32.75" y1="50.25" x2="40.57" y2="36.7"/>
        <path class="cls-1" d="m35.72,66.52s-5.83,10.7-2.99,16.5"/>
      </g>
      <g>
        <path class="cls-1" d="m38.01,130.45s.67-7.23-12.05-14.59C10.55,106.93,3.11,91.02,1.46,73.84c-.15-1.55-.31-3.09-.45-4.64-.22-2.46,1.99-4.55,4.4-4.01,1.26.28,2.55,1.26,3.5,3.59.18.43.64.68,1.09.56.5-.13.95-.17,1.36-.14,3.83.26,5.27,6.54,8.8,14.66.05.12.07.25.15.36,3.94,5.6,9.11,10.58,15.25,13.71,6.59,3.36,14.29,4.6,18.55,11.29,3.97,6.23,5.16,14,5.63,21.23"/>
        <path class="cls-1" d="m8.91,68.78s.94,9.21,5.31,18.42c0,0,2.46-3.92,6.09-2.98"/>
        <path class="cls-1" d="m14.22,87.2s1.83,7.9,14.1,18.21"/>
      </g>
      <g>
        <path class="cls-1" d="m93.32,130.45s-.67-7.23,12.05-14.59c15.4-8.92,22.85-24.84,24.49-42.02.15-1.55.31-3.09.45-4.64.22-2.46-1.99-4.55-4.4-4.01-1.26.28-2.55,1.26-3.5,3.59-.18.43-.64.68-1.09.56-.5-.13-.95-.17-1.36-.14-3.83.26-5.27,6.54-8.8,14.66-.05.12-.07.25-.15.36-3.94,5.6-9.11,10.58-15.25,13.71-6.59,3.36-14.29,4.6-18.55,11.29-3.97,6.23-5.16,14-5.63,21.23"/>
        <path class="cls-1" d="m122.41,68.78s-.94,9.21-5.31,18.42c0,0-2.46-3.92-6.09-2.98"/>
        <path class="cls-1" d="m117.1,87.2s-1.83,7.9-14.1,18.21"/>
      </g>
    </g>
  </g>
</svg>