<?xml version="1.0" encoding="UTF-8"?>
<svg id="Layer_2" data-name="Layer 2" xmlns="http://www.w3.org/2000/svg" viewBox="0 0 131.1 131.31">
  <defs>
    <style>
      .cls-1 {
        fill: none;
        stroke: #2d2d2d;
        stroke-linecap: round;
        stroke-linejoin: round;
        stroke-width: 2px;
      }
    </style>
  </defs>
  <g id="Icons">
    <g>
      <path class="cls-1" d="m128.81,83.49c-5.36,21.96-22.11,39.78-43.71,46.5-3.86,1.2-7.96-.96-9.16-4.81-1.2-3.86.96-7.96,4.81-9.16,8.35-2.6,15.77-7.34,21.61-13.55"/>
      <path class="cls-1" d="m1,65.52c0-16.14,5.97-31.61,16.81-43.55C28.57,10.11,43.24,2.68,59.1,1.04c4.13-.43,7.81,2.67,8.05,6.86.23,3.92-2.78,7.29-6.69,7.7-23.64,2.5-41.9,21.01-44.52,44.16"/>
      <line class="cls-1" x1="99.09" y1="30.04" x2="80.66" y2="30.04"/>
      <path class="cls-1" d="m99.09,30.35c8.28,1.32,14.7,8.44,14.46,17.07-.17,5.95-3.4,11.12-8.18,14,0,0,.93,3.3-2.5,5.51-3.43,2.21-5.54.47-10.57,7.94-5.03,7.47-8.39,6.7-18.89,6.77s-21.29,0-21.29,0"/>
      <path class="cls-1" d="m75.18,27.53h4.48c.54,0,.98.44.98.98v3.07c0,.54-.44.98-.98.98h-4.48"/>
      <path class="cls-1" d="m61.62,22.56h6.51c4.13,0,7.48,3.35,7.48,7.48h0c0,4.13-3.35,7.48-7.48,7.48h-6.51c-.54,0-.98-.44-.98-.98v-13.02c0-.54.44-.98.98-.98Z"/>
      <line class="cls-1" x1="55.64" y1="25.04" x2="60.65" y2="25.04"/>
      <line class="cls-1" x1="60.65" y1="35.05" x2="50.52" y2="35.05"/>
      <path class="cls-1" d="m99.09,30.35s12.06,6.15,15.47-8.38c.15-.66-.39-1.28-1.06-1.2-1.66.19-4.27.46-6.34.59-6.44.39-8.06,8.99-8.06,8.99Z"/>
      <path class="cls-1" d="m99.09,30.35s4.52-.48,7.13-3.08"/>
      <line class="cls-1" x1="95.95" y1="87.23" x2="39.2" y2="87.23"/>
      <path class="cls-1" d="m111.31,55.36s5.61,4.13,14.87,5.53c1.41.21,2.4,1.49,2.27,2.91-.26,2.79-.33,7.47,1.21,12.35,1.37,4.36.23,12.12-12.68,11.1-.02,0-.04,0-.06,0h0"/>
      <path class="cls-1" d="m18.24,87.23h-5.91l-4.42.05c-1.7.02-2.96-1.52-2.67-3.19,0-.02,0-.03,0-.05.38-2.33-.69-4.22-1.43-5.21-.43-.57-.63-1.27-.53-1.97.37-2.67,1.91-5.08,4.24-6.52,4.98-3.06,14.41-7.16,29.16-7.03.52,0,1.03-.14,1.48-.42,3.71-2.36,22.46-13.63,41.02-12.79,10.19.46,17.21,1.48,21.71,2.4.72.15,1.01,1,.56,1.57-2.43,3.07-12.33,10.56-50.93,10.79"/>
      <circle class="cls-1" cx="28.72" cy="84.22" r="6.11"/>
      <circle class="cls-1" cx="28.72" cy="84.22" r="10.9"/>
      <circle class="cls-1" cx="106.43" cy="84.22" r="6.11"/>
      <circle class="cls-1" cx="106.43" cy="84.22" r="10.9"/>
      <path class="cls-1" d="m69.88,93.06l-2.08,10.54c-.12.6.34,1.16.96,1.16h5.21l-11.49,16.49,2.21-10.24c.13-.61-.33-1.18-.95-1.18h-5.56l11.7-16.78Z"/>
    </g>
  </g>
</svg>