<?xml version="1.0" encoding="UTF-8"?>
<svg id="Layer_2" data-name="Layer 2" xmlns="http://www.w3.org/2000/svg" viewBox="0 0 81.6 131.45">
  <defs>
    <style>
      .cls-1 {
        fill: none;
        stroke: #2d2d2d;
        stroke-linecap: round;
        stroke-linejoin: round;
        stroke-width: 2px;
      }
    </style>
  </defs>
  <g id="Icons">
    <g>
      <path class="cls-1" d="m32.73,123.93c.8,3.73,4.11,6.52,8.07,6.52s7.28-2.79,8.08-6.52"/>
      <path class="cls-1" d="m53.09,96.41c3.18,0,5.87-2.31,6.4-5.44,1.79-10.54,7.44-19.63,13.84-27.98,4.65-6.06,7.05-14.57,7.27-22.19,0-21.98-17.82-39.8-39.8-39.8C18.82,1,1,18.82,1,40.8c.22,7.63,2.62,16.13,7.27,22.19,6.4,8.35,12.05,17.44,13.84,27.98.53,3.13,3.22,5.44,6.4,5.44h24.58Z"/>
      <rect class="cls-1" x="24.33" y="96.41" width="32.93" height="27.52" rx="4.02" ry="4.02"/>
      <line class="cls-1" x1="24.33" y1="105.98" x2="57.26" y2="101.96"/>
      <line class="cls-1" x1="24.33" y1="111.96" x2="57.26" y2="107.95"/>
      <line class="cls-1" x1="24.33" y1="117.94" x2="57.26" y2="113.93"/>
      <line class="cls-1" x1="40.8" y1="67.16" x2="40.8" y2="32.71"/>
      <path class="cls-1" d="m35.71,96.41s1.21-24.48-6.92-23.5c-6.77.82-4.49,12.62,5.27,6.55,4.23-2.63,6.74-7.32,6.74-12.3"/>
      <path class="cls-1" d="m47.17,79.26c1-3.83,2.71-6.69,5.6-6.34,6.78.82,4.49,12.62-5.27,6.55-.11-.07-.22-.14-.33-.21-1.83,6.97-1.33,17.16-1.33,17.16"/>
      <path class="cls-1" d="m40.8,48.7s1.04-4.22,7.14-7.24"/>
      <path class="cls-1" d="m40.8,60.34s1.34-5.46,9.23-9.36"/>
      <path class="cls-1" d="m40.8,60.34s-1.34-5.46-9.23-9.36"/>
      <path class="cls-1" d="m40.8,48.7s-1.04-4.22-7.14-7.24"/>
      <path class="cls-1" d="m40.2,71.34c7.64-3.02,11.76-8.38,13.05-10.57,6.38-10.83,2.26-28.08-11.63-41.45-.48-.46-1.25-.46-1.73,0-13.89,13.37-18.02,30.62-11.63,41.45.88,1.5,2.58,4.49,6.02,7.19"/>
      <line class="cls-1" x1="60.23" y1="34.63" x2="70.68" y2="34.63"/>
      <line class="cls-1" x1="56.17" y1="20.13" x2="56.17" y2="27.04"/>
      <line class="cls-1" x1="66.63" y1="24.44" x2="60.23" y2="30.84"/>
    </g>
  </g>
</svg>