<?xml version="1.0" encoding="UTF-8"?>
<svg id="Layer_2" data-name="Layer 2" xmlns="http://www.w3.org/2000/svg" viewBox="0 0 129.17 118.34">
  <defs>
    <style>
      .cls-1 {
        fill: none;
        stroke: #2d2d2d;
        stroke-linecap: round;
        stroke-linejoin: round;
        stroke-width: 2px;
      }
    </style>
  </defs>
  <g id="Icons">
    <g>
      <line class="cls-1" x1="124.51" y1="117.34" x2="6.81" y2="117.34"/>
      <path class="cls-1" d="m106.91,83.82c6.09,3.31,10.08,8.86,10.08,15.14,0,10.15-10.4,18.37-23.24,18.37s-23.24-8.23-23.24-18.37c0-6.28,3.99-11.83,10.08-15.14"/>
      <g>
        <path class="cls-1" d="m80.59,83.82c.05-1.63.61-2.56.96-3.02,1.9-2.46,6.94-2.87,11.95-.39.24.12.52.12.76,0,5-2.49,9.8-2.07,11.7.39.35.46.91,1.39.96,3.02"/>
        <path class="cls-1" d="m81.32,83.64c-.24.05-.48.11-.73.18l.73-.18Z"/>
        <path class="cls-1" d="m81.32,83.64c2.92-.63,5.4-.08,6.4.21.21.06.26.32.11.47-1.84,1.79-1.56,4.13-1.34,5.12.05.21.31.29.46.14,3.42-3.29,6.8-3.33,6.8-3.33,0,0,3.38.04,6.8,3.33.15.15.41.07.46-.14.22-.99.5-3.33-1.34-5.12-.15-.15-.09-.41.11-.47,1-.29,3.48-.84,6.4-.21"/>
        <path class="cls-1" d="m106.18,83.64l.73.18c-.25-.07-.49-.13-.73-.18Z"/>
      </g>
      <path class="cls-1" d="m93.84,80.51s-.23-6.03,2.48-7.5"/>
      <path class="cls-1" d="m79.63,90.55s-3.73,3.21-3.13,8.15"/>
      <path class="cls-1" d="m31.69,20.53C33.94,17.72,48.59.04,69.14,1.04c2.59.13,8.76.5,15.25,4.36,13.2,7.85,15.77,23.02,16.19,25.71-2.31,2.41-6.5,5.38-12.07,7.92-7.03,3.21-16.07,4.91-24.07-1.1C41.82,20.93,31.69,20.53,31.69,20.53c39.55-10.93,59.19-.9,68.89,10.58,6.09,7.21,9.29,16.41,9.29,25.84v19.54"/>
      <path class="cls-1" d="m109.88,65.24s.47-18.52-17.15-17.55c-.64.04-1.14.58-1.14,1.22-.02,4.07,1.2,17.58,18.3,16.33Z"/>
      <line class="cls-1" x1="109.88" y1="65.24" x2="100.73" y2="56.49"/>
      <path class="cls-1" d="m109.88,65.24s-.47-18.52,17.15-17.55c.64.04,1.14.58,1.14,1.22.02,4.07-1.2,17.58-18.3,16.33Z"/>
      <line class="cls-1" x1="109.88" y1="65.24" x2="119.02" y2="56.49"/>
      <path class="cls-1" d="m24.46,87.94s5.56-2,3.14-7.82c-.07-.17,0-.36.18-.43,1.2-.46,5.5-2.41,6.87-6.93.07-.24.37-.31.55-.13,1.09,1.17,4.11,3.93,8.5,3.85,4.02-.07,7.78-2.5,9.82-6.27.16-.3.62-.17.61.18-.17,3.58,1.12,6.46,3.24,7.43.48.22,1.32.49,2.56.33.18-.02.34.11.36.28.11,1.08.51,3.12,2.01,5.09,1.3,1.69,2.82,2.56,3.67,2.96,0,0-11.76,5-12.99,23.98-.25,3.84-3.4,6.85-7.25,6.85h-4.94c-3.9,0-7.11-3.07-7.28-6.97-.32-6.91-2.02-17.18-8.89-22.32-.09-.07-.2-.08-.31-.04-1.02.39-3.88,1.28-7.08.13-4.81-1.74-6.26-6.64-6.53-7.77-.03-.13-.14-.23-.28-.24-5.77-.61-9.93-5.8-9.36-11.26.53-5,4.92-9.02,10.21-9.12.18,0,.31-.14.32-.31.15-4.9,2.97-9.28,7.28-11.27,5.14-2.37,9.99-.22,11.32.46.17.09.37,0,.45-.17,2.1-5.16,7.15-8.56,12.72-8.54,5.63.01,10.7,3.51,12.74,8.74.07.19.3.27.47.16,1.31-.8,6.18-3.36,11.33-1.1,4.57,2.01,7.43,6.97,6.99,12.3-.02.2.14.37.34.35,1.32-.1,5.57-.12,8.64,3.33,3.27,3.68,2.45,8.23,2.35,8.74"/>
      <path class="cls-1" d="m19.18,62.47c5.14-2.37,9.99-.22,11.32.46.17.09.37,0,.45-.17,2.1-5.16,7.15-8.56,12.72-8.54,5.63.01,10.7,3.51,12.74,8.74.07.19.3.27.47.16,1.31-.8,6.18-3.36,11.33-1.1"/>
      <path class="cls-1" d="m27.6,80.13s9.4,7.16,10.63,13.22c0,0-1.04-12.45,1.62-17.53"/>
      <path class="cls-1" d="m60.52,79.83s-10.15,7.45-11.37,13.52c0,0,1.04-12.58-1.62-17.65"/>
    </g>
  </g>
</svg>