<?xml version="1.0" encoding="UTF-8"?>
<svg id="Layer_2" data-name="Layer 2" xmlns="http://www.w3.org/2000/svg" viewBox="0 0 91.22 131.31">
  <defs>
    <style>
      .cls-1 {
        fill: none;
        stroke: #2d2d2d;
        stroke-linecap: round;
        stroke-linejoin: round;
        stroke-width: 2px;
      }
    </style>
  </defs>
  <g id="Icons">
    <g>
      <path class="cls-1" d="m1,130.31c10.05-3.51,25.77-7.67,45.35-7.56,18.83.1,34,4.12,43.87,7.56"/>
      <path class="cls-1" d="m72.9,82.13c-4.01,3.47-8.75,6.12-13.97,7.67"/>
      <path class="cls-1" d="m56.99,83.29c4.2-1.26,8.1-3.4,11.43-6.27"/>
      <path class="cls-1" d="m68.87,21.59c10.34,6.79,17.17,18.49,17.17,31.79"/>
      <path class="cls-1" d="m79.26,53.38c0-9.92-4.72-19.12-12.45-24.95"/>
      <path class="cls-1" d="m19.38,28.44c5.36-6.15,12.66-10.56,20.94-12.27"/>
      <path class="cls-1" d="m40.73,23.04c-6.24,1.51-11.93,4.92-16.23,9.86"/>
      <path class="cls-1" d="m32.44,88.04c-4.03-1.82-7.69-4.32-10.83-7.36"/>
      <path class="cls-1" d="m28.51,77.72c2.06,1.65,4.33,3.05,6.72,4.13"/>
      <path class="cls-1" d="m33.71,123.27s-.7-2.78-2.3-4.99"/>
      <path class="cls-1" d="m38.37,122.94s-.12-2.22.28-4.17"/>
      <path class="cls-1" d="m36.01,123.09s-.24-4.39-2.09-7.83"/>
      <line class="cls-1" x1="48.79" y1="56.12" x2="52.8" y2="122.94"/>
      <line class="cls-1" x1="41.89" y1="67.03" x2="38.42" y2="122.94"/>
      <line class="cls-1" x1="44.08" y1="117.38" x2="45.21" y2="84.4"/>
      <path class="cls-1" d="m52.28,114.4c.19-.19.61-.56,1.27-.69,1.22-.24,2.15.59,2.26.69.18-.42.57-1.13,1.32-1.74.28-.23,1.73-1.42,3.55-.99,1.55.37,2.32,1.67,2.55,2.06.72,1.22.67,2.43.63,2.89,1.93.06,3.58,1.38,4.03,3.2.41,1.68-.27,3.48-1.73,4.49"/>
      <path class="cls-1" d="m59.98,116.93c-1.2,1.34-1.56,6.43-1.56,6.43,0,0-.25-2.98-1.85-4.18"/>
      <path class="cls-1" d="m58.42,123.36s2.16-3.95,4.35-3.95"/>
      <g>
        <path class="cls-1" d="m58.93,52.17c-.14.78-.5,1.46-1.02,2.07-.97,1.15-2.46,2-3.89,2.6-.65.28-1.29.51-1.86.69-1.31.41-2.73-.2-3.36-1.42-.57-1.09-1.14-2.54-1.27-4.2-.1-1.07-.02-2.22.36-3.41.59-1.92,1.37-2.24,2.15-2.99,0-.01.02-.01.03-.01.49.15,2.52.52,4.53,1.35,2.12.86,4.21,2.23,4.38,4.36.02.21.02.55-.05.96Z"/>
        <path class="cls-1" d="m41.68,54.26l-9.88,3.97h0c-1.05-.02-2.19-.15-3.44-.48-.71-.19-1.37-.55-1.91-1.05-2.74-2.56-3.6-4.85-3.85-6.26-.04-.24-.04-.47,0-.71.49-.06,15.06-1.74,19.09,4.53Z"/>
        <path class="cls-1" d="m62.32,4.54l-7.72,42.31c-2.01-.83-4.04-1.2-4.53-1.35-.01,0-.02,0-.03.01-.78.75-1.56,1.07-2.15,2.99-.38,1.19-.46,2.34-.36,3.41l-5.85,2.35c-4.03-6.27-18.6-4.59-19.09-4.53.07-.6.4-1.16.9-1.54,8.29-6.22,26.56-2.69,26.56-2.69-.02-.51-.11-1.42-.42-2.5-.72-2.47-2.12-4.04-2.39-4.37-4.33-5.35,6.96-33.34,10.37-36.53,1.03-.97,2.41-1.63,3.7-.54.86.72,1.21,1.88,1.01,2.98Z"/>
      </g>
      <path class="cls-1" d="m54.01,56.85l28.22,24.03c.69.59,1.79.81,2.85.51,1.39-.39,1.76-1.47,1.73-2.49-.18-5.26-17.17-29.76-23.25-25.64-.4.27-2.32,1.77-4.55,1.34-.44-.08-.81-.23-1.09-.36"/>
      <path class="cls-1" d="m48.8,56.11c-.44.35-1.23,1.01-1.49,1.4-1.17,1.75-.93,4.11-.91,4.57.08,1.63-1.68,3.33-4.51,4.94h0c-8.62,4.9-27.14,8.93-33.26,7.63-1.77-.37-3.49-1.31-3.46-3.3.03-1.54,1.04-2.86,2.48-3.43l24.14-9.69h0l9.88-3.97,5.85-2.35c.13,1.66.7,3.11,1.27,4.2Z"/>
      <path class="cls-1" d="m22.59,49.73h-.01"/>
      <line class="cls-1" x1="28.88" y1="53.7" x2="32.61" y2="54.05"/>
    </g>
  </g>
</svg>