<?xml version="1.0" encoding="UTF-8"?>
<svg id="Layer_2" data-name="Layer 2" xmlns="http://www.w3.org/2000/svg" viewBox="0 0 73.08 131.32">
  <defs>
    <style>
      .cls-1 {
        fill: none;
        stroke: #2d2d2d;
        stroke-linecap: round;
        stroke-linejoin: round;
        stroke-width: 2px;
      }
    </style>
  </defs>
  <g id="Icons">
    <g>
      <circle class="cls-1" cx="36.54" cy="71.6" r="35.54"/>
      <path class="cls-1" d="m62.16,96.23c-6.47-5.02-15.56-8.14-25.62-8.14s-19.15,3.12-25.62,8.14"/>
      <path class="cls-1" d="m10.92,46.98c6.47,5.02,15.56,8.14,25.62,8.14s19.16-3.12,25.62-8.14"/>
      <path class="cls-1" d="m12.11,55.12c-.75.41-1.85,1.53-2.54,3.19-1.11,2.65.8,5.03,2.47,8.28,6.45-7.17.07-11.47.07-11.47l-1.19-8.14"/>
      <path class="cls-1" d="m7.74,79.15c-.3.8-.42,2.36.12,4.08.87,2.74,3.86,3.32,7.24,4.71.28-9.64-7.36-8.79-7.36-8.79l-6.74-7.54"/>
      <ellipse class="cls-1" cx="36.54" cy="71.6" rx="17.63" ry="35.54"/>
      <line class="cls-1" x1="1" y1="71.6" x2="72.08" y2="71.6"/>
      <path class="cls-1" d="m36.54,107.14s1.24,4.11,10.8,8.31c7.46,3.28,6.64,6.08,6.64,6.08"/>
      <line class="cls-1" x1="36.54" y1="36.06" x2="36.54" y2="107.14"/>
      <path class="cls-1" d="m51.46,52.68s-1.9-6.7-8.43-5.7c0,0,2.05,8.31,8.43,5.7Z"/>
      <path class="cls-1" d="m66.14,67.59c.32-.79.48-2.35-.02-4.08-.8-2.76-3.77-3.42-7.11-4.9-.54,9.62,7.13,8.98,7.13,8.98l5.94,4.02"/>
      <path class="cls-1" d="m60.4,91.53c.75-.4,1.88-1.5,2.6-3.15,1.15-2.63-.71-5.04-2.33-8.32-6.57,7.05-.27,11.46-.27,11.46l1.76,4.7"/>
      <path class="cls-1" d="m36.57,27.92c5.64-8.61,15.34-9.65,18.73-9.74.63-.02,1.1.56.96,1.17-4.05,16.91-19.72,16.71-19.72,16.71,0,0-15.67.2-19.72-16.71-.15-.61.33-1.19.96-1.17,3.39.09,13.09,1.13,18.73,9.74h.07Z"/>
      <path class="cls-1" d="m28.88,21.01s-1.44-3.68.03-8.9c.9-3.2,2.89-6.97,6.97-10.84.37-.35.95-.35,1.32,0,2.3,2.19,3.94,4.35,5.09,6.39.89,1.57,1.48,3.07,1.87,4.46,1.47,5.23.03,8.9.03,8.9"/>
      <line class="cls-1" x1="36.54" y1="36.06" x2="49.22" y2="24.12"/>
      <polyline class="cls-1" points="36.54 9.67 36.54 36.06 23.86 24.12"/>
      <polyline class="cls-1" points="28.91 12.11 36.54 19.74 44.17 12.11"/>
      <path class="cls-1" d="m36.54,107.14s-.73,10.54,7.36,14.39c4.49,2.14,5.73,5.34,5.73,5.34"/>
      <path class="cls-1" d="m43.9,121.53s1.05,5.05-1.19,6.44"/>
      <path class="cls-1" d="m47.34,115.45s6.88-4.16,14.57,2.25"/>
      <path class="cls-1" d="m36.54,107.14s-1.18,4.26-10.8,8.31c-5.33,2.25-6.64,6.08-6.64,6.08"/>
      <path class="cls-1" d="m36.54,107.14s.73,10.54-7.36,14.39c-4.49,2.14-5.73,5.34-5.73,5.34"/>
      <path class="cls-1" d="m29.18,121.53s-.17,5.81,1.19,8.06"/>
      <path class="cls-1" d="m25.74,115.45s-6.88-4.16-14.57,2.25"/>
      <path class="cls-1" d="m33.71,117.7s.99,3.08,3.69,8.79c.57,1.2.88,2.5.88,3.83"/>
    </g>
  </g>
</svg>