<?xml version="1.0" encoding="UTF-8"?>
<svg id="Layer_2" data-name="Layer 2" xmlns="http://www.w3.org/2000/svg" viewBox="0 0 87.85 131.41">
  <defs>
    <style>
      .cls-1 {
        fill: none;
        stroke: #2d2d2d;
        stroke-linecap: round;
        stroke-linejoin: round;
        stroke-width: 2px;
      }
    </style>
  </defs>
  <g id="Icons">
    <g>
      <path class="cls-1" d="m34.42,83.49c-2.4,9.26,2.49,18.35,2.82,27.57.21,5.8-.64,12.73-5.52,16.57-2.42,1.9-5.49,2.67-8.52,2.77-8.99.29-14.38-8-15.76-15.96-1.62-9.33,1.14-18.31.79-27.62-.31-8.1-1.7-16.17-3.38-24.08-.15-.72-.31-1.44-.47-2.16-1.77-7.94-.24-16.32,4.46-22.96.9-1.27,1.94-2.52,3.14-3.73,5.66-5.68,13.67-8.43,21.55-8.95s16.72.72,22.84,6.25c1.32,1.19,6.67,6.04,7.24,13.46.67,8.65-5.47,16-12.42,20.33-3.63,2.26-7.26,3.87-10.28,7.02-.97,1.01-1.86,2.1-2.67,3.25"/>
      <polyline class="cls-1" points="48.47 66.66 48.47 58.47 39.01 63.83 39.01 57.43 29.2 63.83 29.2 57.77 19.6 63.83"/>
      <polyline class="cls-1" points="20.22 74.71 18.77 48.81 12.7 48.81 11.25 74.71"/>
      <line class="cls-1" x1="12.42" y1="53.8" x2="19.05" y2="53.8"/>
      <polyline class="cls-1" points="27.58 74.71 27.58 68.42 32.34 68.42 32.34 74.71"/>
      <path class="cls-1" d="m19.19,44.77c.2.1,1.91.91,3.71.03,2.09-1.03,2.29-3.38,2.29-3.48,1.06.94,2.54,1.25,3.87.8,1.98-.66,2.52-2.61,2.55-2.75.25.2,1.88,1.47,3.9,1.03,2.22-.49,3.46-2.76,3.54-4.7.1-2.25-1.35-4.1-3.01-4.95-1.96-1-3.88-.44-4.37-.29-3.75,1.16-4.73,5.55-4.77,5.76-1.53-1-3.45-1.03-4.84-.09-1.5,1.01-1.74,2.71-1.77,2.99-.11,0-1.29.08-1.91,1.09-.43.7-.33,1.41-.3,1.61-.21-.01-2.78-.16-3.98,2.42"/>
      <path class="cls-1" d="m49.34,83.75c.11-3.81,2.39-7.18,5.76-8.57,3.92-1.61,8.64-.25,11.29,3.39,3.21-1.3,6.77-.81,9.19,1.29,2.37,2.06,2.74,4.88,2.81,5.62,3.66-.06,6.91,2.15,8.03,5.35,1.33,3.79-.55,8.29-4.55,10.17-.09,2.08-1.27,3.94-3.08,4.82-2.15,1.04-4.83.52-6.56-1.34-.9,1.61-2.61,2.6-4.42,2.54-2.49-.08-3.84-2.1-3.95-2.28-3.36,3.14-8.09,3.84-11.58,1.87-3.41-1.92-4.27-5.62-4.42-6.29-4.57-.46-7.94-4.58-7.5-9.1.44-4.47,4.45-7.85,8.97-7.5Z"/>
      <g>
        <path class="cls-1" d="m58.53,95.79c-.94,1.01-2.28,1.63-3.76,1.63-2.84,0-5.14-2.3-5.14-5.14s2.3-5.14,5.14-5.14c1.42,0,2.71.58,3.64,1.51"/>
        <circle class="cls-1" cx="65.81" cy="92.29" r="5.14"/>
        <path class="cls-1" d="m73.3,95.3c0-1.18.95-2.13,2.13-2.13.01,0,.02,0,.04,0,1.55.03,2.28,1.95,1.18,3.04l-3.21,3.21c-.19.19-.06.53.22.53h3.9"/>
      </g>
      <path class="cls-1" d="m49.34,83.75s-14.53-10.32-23.16,0c-6.83,8.17-3.35,33.64-3.35,33.64"/>
      <polyline class="cls-1" points="27.84 112.38 22.83 117.39 17.83 112.38"/>
      <ellipse class="cls-1" cx="5.39" cy="26.14" rx="4.06" ry="5.94" transform="translate(-9.58 4.04) rotate(-22.46)"/>
      <ellipse class="cls-1" cx="17.81" cy="17.35" rx="4.91" ry="7.54" transform="translate(-2.49 2.99) rotate(-8.97)"/>
      <ellipse class="cls-1" cx="32.74" cy="9.84" rx="5.73" ry="8.84"/>
      <ellipse class="cls-1" cx="50.02" cy="10.15" rx="9.25" ry="6.47" transform="translate(29.8 57.02) rotate(-78.13)"/>
      <ellipse class="cls-1" cx="71.75" cy="14.08" rx="13.44" ry="10.21" transform="translate(33.22 76.22) rotate(-69.3)"/>
    </g>
  </g>
</svg>