<?xml version="1.0" encoding="UTF-8"?>
<svg id="Layer_2" data-name="Layer 2" xmlns="http://www.w3.org/2000/svg" viewBox="0 0 131.32 129.4">
  <defs>
    <style>
      .cls-1 {
        fill: none;
        stroke: #2d2d2d;
        stroke-linecap: round;
        stroke-linejoin: round;
        stroke-width: 2px;
      }
    </style>
  </defs>
  <g id="Icons">
    <g>
      <line class="cls-1" x1="130.32" y1="63.74" x2="1" y2="63.74"/>
      <path class="cls-1" d="m65.66,63.74s-5.09,13.59-17,13.92c-11.91.33-17.87,16-24.5,16.94"/>
      <path class="cls-1" d="m87.49,16.42c-16.78,15.28-21.83,47.32-21.83,47.32"/>
      <path class="cls-1" d="m68.8,50.69s-3.14-15.74-22.91-29.83"/>
      <path class="cls-1" d="m69.99,28.62S67.48,1.03,108.75,1c.72,0,1.3.62,1.23,1.34-.56,6.1-4.4,31.11-29.85,33.73"/>
      <path class="cls-1" d="m59.82,26.75s-2.41-15.17-25.54-13.75c-.7.04-1.22.66-1.15,1.36.46,4.45,3.25,19.22,19.85,20.52"/>
      <path class="cls-1" d="m33.91,86.47s-11.62,3.11-16.78-3.58"/>
      <path class="cls-1" d="m44.86,78.32s-11.21-5.59-18.43.49"/>
      <path class="cls-1" d="m52.34,77.11s-15.9,11.13-1.27,25.23c14.64,14.1,15.07,18.03,14.58,26.06"/>
      <path class="cls-1" d="m44.89,90.61s-3.1,16.46-12.07,19.18"/>
      <path class="cls-1" d="m50.14,101.41s.66,7.31-2.42,11.4"/>
      <path class="cls-1" d="m59.85,111.55s.2,4.14-4.53,8.42"/>
      <path class="cls-1" d="m65.66,63.74s5.09,13.59,17,13.92c11.91.33,17.87,16,24.5,16.94"/>
      <path class="cls-1" d="m97.42,86.47s11.62,3.11,16.78-3.58"/>
      <path class="cls-1" d="m86.46,78.32s11.21-5.59,18.43.49"/>
      <path class="cls-1" d="m78.99,77.11s15.9,11.13,1.27,25.23c-10.4,10.02-13.78,15.45-14.61,20.32"/>
      <path class="cls-1" d="m86.44,90.61s3.1,16.46,12.07,19.18"/>
      <path class="cls-1" d="m81.18,101.41s-.66,7.31,2.42,11.4"/>
      <path class="cls-1" d="m71.45,111.65s-.18,4.03,4.54,8.32"/>
      <path class="cls-1" d="m58.75,90.73c-2.74,5.06.7,11.37,6.45,11.61.12,0,.23,0,.35,0s.23,0,.35,0c5.75-.23,9.19-6.54,6.45-11.61l-6.22-11.5c-.25-.46-.91-.46-1.16,0l-6.22,11.5Z"/>
      <path class="cls-1" d="m69.03,96.6c-.33.58-1.32,1.95-3.29,2.03"/>
    </g>
  </g>
</svg>