<?xml version="1.0" encoding="UTF-8"?>
<svg id="Layer_2" data-name="Layer 2" xmlns="http://www.w3.org/2000/svg" viewBox="0 0 110.59 131.34">
  <defs>
    <style>
      .cls-1 {
        fill: none;
        stroke: #2d2d2d;
        stroke-linecap: round;
        stroke-linejoin: round;
        stroke-width: 2px;
      }
    </style>
  </defs>
  <g id="Icons">
    <g>
      <path class="cls-1" d="m69.27,56.35c.22,4.41-3.78,8.35-5.39,9.76-.85.74-1.64,1.55-2.34,2.43-2.71,3.44-4.29,7.61-4.29,12.1,0,6.8,3.64,12.86,9.3,16.77"/>
      <path class="cls-1" d="m94.01,56.35c-.22,4.41,3.78,8.35,5.39,9.76.85.74,1.64,1.55,2.34,2.43,2.71,3.44,4.29,7.61,4.29,12.1,0,6.49-3.31,12.3-8.53,16.21"/>
      <path class="cls-1" d="m88.03,56.35h-20.32c-1.84,0-3.33-1.49-3.33-3.33h0c0-1.84,1.49-3.33,3.33-3.33h27.22c1.84,0,3.33,1.49,3.33,3.33h0c0,1.84-1.49,3.33-3.33,3.33"/>
      <path class="cls-1" d="m81.64,27.16s-11.69.15-14.71-12.47c-.11-.45.25-.89.71-.88,2.53.07,9.77.84,13.97,7.27h.05c4.21-6.43,11.45-7.2,13.97-7.27.47-.01.82.42.71.88-3.02,12.62-14.71,12.47-14.71,12.47"/>
      <path class="cls-1" d="m75.92,15.93s-1.07-2.74.02-6.64c.67-2.38,2.16-5.2,5.2-8.09.28-.26.71-.26.99,0,1.72,1.63,2.94,3.24,3.8,4.77.66,1.17,1.11,2.29,1.4,3.33,1.1,3.9.02,6.64.02,6.64"/>
      <line class="cls-1" x1="81.64" y1="26.54" x2="87.02" y2="21.48"/>
      <line class="cls-1" x1="81.64" y1="26.54" x2="76.26" y2="21.48"/>
      <line class="cls-1" x1="81.64" y1="11.03" x2="81.64" y2="49.68"/>
      <path class="cls-1" d="m98.94,37.31c-2.68-.87-5.49-.48-5.49-.48,0,0,1.69-2.9,1.19-5.09"/>
      <path class="cls-1" d="m102.95,32.41c-1.74-.62-3.54-.54-3.54-.54,0,0,.89-.91.68-3.21"/>
      <path class="cls-1" d="m88.03,38.11s-.03-17.11,21.49-14.76c0,0,2.14,19.91-16.41,19.62"/>
      <path class="cls-1" d="m109.52,23.35l-16.07,13.48s-7.54,5.67-8.28,12.85"/>
      <path class="cls-1" d="m64.34,37.31c2.68-.87,5.49-.48,5.49-.48,0,0-1.69-2.9-1.19-5.09"/>
      <path class="cls-1" d="m60.33,32.41c1.74-.62,3.54-.54,3.54-.54,0,0-.89-.91-.68-3.21"/>
      <path class="cls-1" d="m75.25,38.11s.03-17.11-21.49-14.76c0,0-2.14,19.91,16.41,19.62"/>
      <path class="cls-1" d="m53.76,23.35l16.07,13.48s7.54,5.67,8.28,12.85"/>
      <path class="cls-1" d="m20.88,72.76H6.85c-1.16,0-2.1-.94-2.1-2.1h0c0-1.16.94-2.1,2.1-2.1h28.06c1.16,0,2.1.94,2.1,2.1h0c0,1.16-.94,2.1-2.1,2.1"/>
      <path class="cls-1" d="m34.91,72.76c1.16,0,2.1.94,2.1,2.1h0c0,1.16-.94,2.1-2.1,2.1H6.85c-1.16,0-2.1-.94-2.1-2.1h0c0-1.16.94-2.1,2.1-2.1"/>
      <path class="cls-1" d="m34.91,76.95c0,2.61,1.04,5.12,2.88,6.96l.08.08c1.85,1.85,2.88,4.35,2.88,6.96v29.52c0,5.44-4.41,9.85-9.85,9.85H10.85c-5.44,0-9.85-4.41-9.85-9.85v-29.52c0-2.61,1.04-5.12,2.88-6.96l.08-.08c1.85-1.85,2.88-4.35,2.88-6.96"/>
      <path class="cls-1" d="m5.78,100.96v-10c0-2.61,1.04-5.12,2.88-6.96l.08-.08"/>
      <line class="cls-1" x1="5.78" y1="109.48" x2="5.78" y2="105.06"/>
      <path class="cls-1" d="m38.86,85.14c-1.98,1.96-3.97,3.92-5.95,5.89l2.98,5.03c-1.9,2.07-3.8,4.15-5.7,6.22"/>
      <path class="cls-1" d="m81.27,63.84l-13.69,19.16c-.44.61,0,1.46.75,1.46h27.37c.75,0,1.19-.85.75-1.46l-13.69-19.16c-.37-.52-1.14-.52-1.51,0Z"/>
      <path class="cls-1" d="m75.98,84.46c0,1.03-.11,38.66-33.56,45.24-.37.07-.32.61.06.61,2.23,0,4.48.08,6.71,0,15.71-.51,30.05-12.99,36.05-26.93,2.51-5.83,4.26-12.52,4.18-18.93"/>
    </g>
  </g>
</svg>