<?xml version="1.0" encoding="UTF-8"?>
<svg id="Layer_2" data-name="Layer 2" xmlns="http://www.w3.org/2000/svg" viewBox="0 0 121.62 130.34">
  <defs>
    <style>
      .cls-1 {
        fill: none;
        stroke: #2d2d2d;
        stroke-linecap: round;
        stroke-linejoin: round;
        stroke-width: 2px;
      }
    </style>
  </defs>
  <g id="Icons">
    <g>
      <path class="cls-1" d="m72.41,17.05c3.65,3.95,5.87,9.24,5.87,15.04v63.72h-44.39v-63.72c0-12.26,9.94-22.2,22.2-22.2"/>
      <path class="cls-1" d="m68.34,22.38c2.27,2.75,3.63,6.27,3.63,10.11,0,8.77-7.11,15.89-15.89,15.89s-15.89-7.11-15.89-15.89,7.11-15.89,15.89-15.89"/>
      <path class="cls-1" d="m78.28,39.23h5.07c.62,0,1.13.51,1.13,1.13v13.52c0,.62-.51,1.13-1.13,1.13h-5.07v-15.78h0Z"/>
      <path class="cls-1" d="m84.48,42.76s9.52.49,12.57,4.62c2.16,2.93,4.81,10.58,6.17,14.8.51,1.59-.36,3.29-1.95,3.81h0c-1.57.51-3.26-.33-3.79-1.89-.31-.91-.69-1.97-1.11-3.06-1.87-4.93-6.61-8.19-11.89-8.19h0"/>
      <line class="cls-1" x1="96.04" y1="60.24" x2="101.76" y2="57.87"/>
      <path class="cls-1" d="m101.27,65.99v17.43c0,3.43-2.37,6.48-5.74,7.15-.66.13-1.34.17-2.02.12-.14-.01-.28-.03-.43-.04-3.56-.47-6.16-3.63-6.16-7.23v-11.06c0-3.89-1.92-7.53-5.14-9.72-1.17-.8-2.34-1.6-3.51-2.39"/>
      <path class="cls-1" d="m101.21,84.38s.68,7.35,10.37,11.43c.05.02.1.04.14.06,5.43,2.33,8.9,7.73,8.9,13.63v4.63"/>
      <g>
        <path class="cls-1" d="m114.3,113h5.19c.62,0,1.13.51,1.13,1.13v3.56c0,.62-.51,1.13-1.13,1.13h-5.19"/>
        <path class="cls-1" d="m98.6,107.25h7.54c4.78,0,8.67,3.88,8.67,8.67h0c0,4.78-3.88,8.67-8.67,8.67h-7.54c-.62,0-1.13-.51-1.13-1.13v-15.07c0-.62.51-1.13,1.13-1.13Z"/>
        <line class="cls-1" x1="91.67" y1="110.12" x2="97.47" y2="110.12"/>
        <line class="cls-1" x1="97.47" y1="121.71" x2="85.74" y2="121.71"/>
      </g>
      <path class="cls-1" d="m32.12,95.81h47.93c2.3,0,4.16,1.86,4.16,4.16v4.65H27.96v-4.65c0-2.3,1.86-4.16,4.16-4.16Z"/>
      <line class="cls-1" x1="111.17" y1="129.34" x2="1" y2="129.34"/>
      <rect class="cls-1" x="42.46" y="65.74" width="27.26" height="14.44" rx=".93" ry=".93"/>
      <line class="cls-1" x1="50.75" y1="72.96" x2="60.87" y2="72.96"/>
      <polygon class="cls-1" points="58.86 22.2 57.18 30.73 61.84 30.73 53.46 42.76 55.26 34.43 50.33 34.43 58.86 22.2"/>
      <path class="cls-1" d="m61.97,17.55s13.93-1.77,7.36-16.55c-.78.71-3.61,3.15-5.8,4.84-4.99,3.86-1.57,11.7-1.57,11.7Z"/>
      <path class="cls-1" d="m61.97,17.55s3.39-2.88,4.06-6.42"/>
    </g>
  </g>
</svg>