<?xml version="1.0" encoding="UTF-8"?>
<svg id="Layer_2" data-name="Layer 2" xmlns="http://www.w3.org/2000/svg" viewBox="0 0 58.05 131.27">
  <defs>
    <style>
      .cls-1 {
        fill: none;
        stroke: #2d2d2d;
        stroke-linecap: round;
        stroke-linejoin: round;
        stroke-width: 2px;
      }
    </style>
  </defs>
  <g id="Icons">
    <g>
      <path class="cls-1" d="m29.03,130.19l-24.9-.08c-1.73,0-3.14-1.42-3.13-3.15l.23-73.32c0-1.73,1.41-3.14,3.15-3.13l12.98.04,6.61.02"/>
      <path class="cls-1" d="m34.09,50.6l6.58.02,13.25.04c1.73,0,3.13,1.42,3.13,3.15l-.23,73.32c0,1.73-1.42,3.14-3.15,3.13l-17.58-.05"/>
      <path class="cls-1" d="m34.09,43.94l5.56.02c.58,0,1.05.47,1.04,1.05l-.02,5.61-6.58-.02"/>
      <path class="cls-1" d="m23.96,50.57l-6.61-.02.02-5.61c0-.58.47-1.05,1.05-1.04l5.54.02"/>
      <path class="cls-1" d="m34.09,58.28h0l12.13.04c1.73,0,3.13,1.42,3.13,3.15l-.18,57.96c0,1.73-1.42,3.14-3.15,3.13l-34.18-.11c-1.73,0-3.14-1.42-3.13-3.15l.18-57.96c0-1.73,1.41-3.13,3.15-3.13l11.93.04"/>
      <line class="cls-1" x1="34.09" y1="58.28" x2="34.09" y2="58.28"/>
      <polygon class="cls-1" points="32.85 66.55 30.55 78.18 36.91 78.18 25.49 94.58 27.94 83.23 21.22 83.23 32.85 66.55"/>
      <line class="cls-1" x1="36.09" y1="112.93" x2="44.77" y2="112.93"/>
      <line class="cls-1" x1="40.43" y1="117.27" x2="40.43" y2="108.59"/>
      <path class="cls-1" d="m29.03,39.46v16.25c0,1.96-.63,3.93-1.86,5.46-1.2,1.5-2.88,2.04-4.61,2.7-7.53,2.87-8.69,10.31-6.84,17.38"/>
      <path class="cls-1" d="m29.03,130.19v-22.73c0-1.96.63-3.93,1.86-5.46,1.2-1.5,2.88-2.04,4.61-2.7,7.53-2.87,8.69-10.31,6.84-17.38"/>
      <path class="cls-1" d="m29.1,30.52c6.18-9.45,16.82-10.58,20.54-10.68.69-.02,1.21.62,1.05,1.29-4.44,18.55-21.63,18.33-21.63,18.33,0,0-17.19.22-21.63-18.33-.16-.67.36-1.3,1.05-1.29,3.72.1,14.36,1.24,20.54,10.68h.07Z"/>
      <path class="cls-1" d="m20.66,22.95s-1.58-4.03.03-9.76c.99-3.5,3.17-7.65,7.64-11.89.4-.39,1.05-.39,1.45,0,2.53,2.4,4.33,4.77,5.59,7.01.97,1.72,1.63,3.37,2.06,4.89,1.61,5.73.03,9.76.03,9.76"/>
      <line class="cls-1" x1="29.06" y1="39.46" x2="42.97" y2="26.36"/>
      <polyline class="cls-1" points="29.06 10.51 29.06 39.46 15.16 26.36"/>
      <polyline class="cls-1" points="20.7 13.18 29.06 21.55 37.43 13.18"/>
    </g>
  </g>
</svg>