<?xml version="1.0" encoding="UTF-8"?>
<svg id="Layer_2" data-name="Layer 2" xmlns="http://www.w3.org/2000/svg" viewBox="0 0 68.99 130.37">
  <defs>
    <style>
      .cls-1 {
        fill: none;
        stroke: #2d2d2d;
        stroke-linecap: round;
        stroke-linejoin: round;
        stroke-width: 2px;
      }
    </style>
  </defs>
  <g id="Icons">
    <g>
      <circle class="cls-1" cx="34.49" cy="27.47" r="5.18"/>
      <path class="cls-1" d="m34.49,22.3s-3.23,7.16,5.07,6.23c6.28-.7,27.91-15.58,27.75-23.59-.02-.9-.46-1.74-1.16-2.31-2.35-1.9-9.77-5.08-25.5,10.35"/>
      <path class="cls-1" d="m8.1,129.37c-3.92,0-7.1-3.18-7.1-7.1V38.54c0-3,1.2-5.87,3.33-7.99l13.26-13.14c2.86-2.84,6.73-4.43,10.76-4.43h12.29c4.03,0,7.9,1.59,10.76,4.43l13.26,13.14c2.13,2.11,3.33,4.99,3.33,7.99v83.72c0,3.92-3.18,7.1-7.1,7.1H24.59c-5.19,0-8.9-5.02-7.38-9.99.81-2.63,2.53-5.89,5.7-9.88,12.32-15.53,28.92-29.85,28.92-29.85"/>
      <path class="cls-1" d="m19.88,113.76s-.65-10.09-6.61-15.65"/>
      <path class="cls-1" d="m45.54,98.11c-6.36-1.47-12.76,0-12.76,0,0,0,3.32-7.03,1.71-11.98"/>
      <path class="cls-1" d="m51.96,89.28c-4.94-1.29-9.87-.63-9.87-.63,0,0,2.24-2.71,1.1-9"/>
      <path class="cls-1" d="m17.86,105.2s5.7-12.28-8.81-14.56c-.65-.1-1.27.35-1.38,1-.56,3.28-1.08,12.45,10.19,13.56Z"/>
      <path class="cls-1" d="m23.85,101.06s-2.49-28.23,32.95-28c.61,0,1.14.46,1.22,1.06.83,5.93,3.25,35.04-29.22,34.48"/>
      <g>
        <path class="cls-1" d="m17.22,52.27c0-1.74-1.41-3.15-3.15-3.15-.02,0-.03,0-.05,0-2.32.04-3.23,3.04-1.38,4.43l2.89,2.17c1.77,1.34,1.03,4.24-1.19,4.42-.09,0-.17.01-.26.01-1.74,0-3.15-1.41-3.15-3.15"/>
        <line class="cls-1" x1="14.08" y1="46.5" x2="14.08" y2="49.12"/>
        <line class="cls-1" x1="14.08" y1="60.16" x2="14.08" y2="62.78"/>
        <line class="cls-1" x1="21.21" y1="62.78" x2="46.66" y2="62.78"/>
        <line class="cls-1" x1="46.66" y1="54.64" x2="58.05" y2="54.64"/>
      </g>
    </g>
  </g>
</svg>