<?xml version="1.0" encoding="UTF-8"?>
<svg id="Layer_2" data-name="Layer 2" xmlns="http://www.w3.org/2000/svg" viewBox="0 0 105.58 131.25">
  <defs>
    <style>
      .cls-1 {
        fill: none;
        stroke: #2d2d2d;
        stroke-linecap: round;
        stroke-linejoin: round;
        stroke-width: 2px;
      }
    </style>
  </defs>
  <g id="Icons">
    <g>
      <path class="cls-1" d="m52.79,130.2c-1.01.09-3.95.23-6.98-1.57-2.63-1.56-3.94-3.74-4.46-4.78-.06-.12-.19-.19-.33-.17-2.68.31-8.58.55-14.39-2.88-7.46-4.4-11.92-13.45-10.99-20.58.56-4.32,2.51-7.63,4.28-9.85,1.62-2.02,2.55-4.52,2.57-7.11.02-2.37.31-5.1,1.14-8.02,1.02-3.56,2.41-5.86,3.51-7.86,3.77-6.87,6.43-14.44,7.25-18.48,3.17-15.66-10.21-34.37-16.84-33.59-1,.12-2.19.72-2.99,1.64-2.84,3.22-.17,9.36.19,10.15"/>
      <path class="cls-1" d="m52.79,130.2c1.01.09,3.95.23,6.98-1.57,2.63-1.56,3.94-3.74,4.46-4.78.06-.12.19-.19.33-.17,2.68.31,8.58.55,14.39-2.88,7.46-4.4,11.92-13.45,10.99-20.58-.56-4.32-2.51-7.63-4.28-9.85-1.62-2.02-2.55-4.52-2.57-7.11-.02-2.37-.31-5.1-1.14-8.02-1.02-3.56-2.41-5.86-3.51-7.86-3.77-6.87-6.43-14.44-7.25-18.48-3.17-15.66,10.21-34.37,16.84-33.59,1,.12,2.19.72,2.99,1.64,2.84,3.22.17,9.36-.19,10.15"/>
      <ellipse class="cls-1" cx="33.64" cy="87.65" rx="1.87" ry="3.91"/>
      <path class="cls-1" d="m59.56,106.74c-.35.83-1.45,3.14-4,4.47-.16.08-.31.15-.46.22-1.4.62-2.31,2.01-2.31,3.55v.13c0,.79.24,1.56.69,2.21,1.32,1.91,4.44,5.63,9.1,5.99,3.91.3,7.88-1.46,9.98-4.82,1.88-3.01,2.17-6.97.31-10.02-3.26-5.35-10.98-7.41-12.38-14.01-1.19-5.63,3.05-11.2,6.35-15.32,3.44-4.3,7.54-8.18,11.6-11.76,0,0,37.54-33.14,22.64-61.38C98.93,1.9,94.15,0,89.79,1.53c-10.77,3.8-26.25,17.64-37,56.86.07-.26,1.07-.71,1.29-.84,1.04-.63,2.12-1.18,3.25-1.64,2.47-1,5.66-1.7,7.97.06,2.89,2.2,2.84,5.77,1.4,8.82-1.7,3.61-4.91,6.14-7.81,8.76-1.89,1.7-3.97,3.44-5.29,5.64-.37.61-1.23.61-1.6,0-1.42-2.35-3.62-4.16-5.67-5.94-3.39-2.95-8.29-6.97-8.49-11.85-.1-2.34,1.18-4.96,3.37-5.98,3.22-1.5,7.24.34,10.04,1.98.53.31,1.05.63,1.55.99C42.04,19.17,26.55,5.33,15.79,1.53,11.43,0,6.65,1.9,4.5,5.99c-14.9,28.24,22.64,61.38,22.64,61.38,4.06,3.59,8.16,7.47,11.6,11.76,3.3,4.12,7.54,9.69,6.35,15.32-1.39,6.6-9.12,8.67-12.38,14.01-1.86,3.06-1.57,7.02.31,10.02,2.09,3.35,6.07,5.12,9.98,4.82,4.66-.36,7.79-4.08,9.1-5.99.45-.65.69-1.42.69-2.21v-.13c0-1.54-.91-2.93-2.31-3.55-.15-.07-.31-.14-.46-.22-2.55-1.33-3.65-3.63-4-4.47"/>
      <ellipse class="cls-1" cx="71.94" cy="87.65" rx="1.87" ry="3.91"/>
    </g>
  </g>
</svg>