<?xml version="1.0" encoding="UTF-8"?>
<svg id="Layer_2" data-name="Layer 2" xmlns="http://www.w3.org/2000/svg" viewBox="0 0 117.71 128.55">
  <defs>
    <style>
      .cls-1 {
        fill: #2d2d2d;
        stroke-width: 0px;
      }

      .cls-2 {
        fill: none;
        stroke: #2d2d2d;
        stroke-linecap: round;
        stroke-linejoin: round;
        stroke-width: 2px;
      }
    </style>
  </defs>
  <g id="Icons">
    <g>
      <path class="cls-2" d="m22.64,58.78h-9.33c-.3,0-.58.15-.76.39l-10.52,14.93c-.43.61,0,1.46.76,1.46h112.14c.75,0,1.19-.85.76-1.46l-10.52-14.93c-.18-.24-.46-.39-.76-.39h-8.95"/>
      <path class="cls-2" d="m39.41,92.89H1.93c-.51,0-.93-.42-.93-.93v-15.48c0-.51.41-.93.93-.93h113.86c.51,0,.93.42.93.93v15.48c0,.51-.41.93-.93.93h-37.49"/>
      <path class="cls-2" d="m39.41,110.22H1.93c-.51,0-.93-.41-.93-.93v-15.48c0-.51.41-.93.93-.93h37.49"/>
      <path class="cls-2" d="m78.3,92.89h37.49c.51,0,.93.41.93.93v15.48c0,.51-.41.93-.93.93h-37.49"/>
      <rect class="cls-2" x="39.41" y="83.97" width="38.89" height="35.17" rx=".82" ry=".82"/>
      <path class="cls-2" d="m39.41,110.22H1.93c-.51,0-.93.41-.93.93v15.48c0,.51.41.93.93.93h113.86c.51,0,.93-.42.93-.93v-15.48c0-.51-.41-.93-.93-.93h-37.49"/>
      <g>
        <path class="cls-2" d="m47.15,97.79c2.15-6.69,9.31-10.37,16-8.22,4.79,1.54,8.03,5.64,8.7,10.31"/>
        <polyline class="cls-2" points="73.52 96.13 71.85 99.88 68.09 98.21"/>
        <path class="cls-2" d="m70.57,105.32c-2.15,6.69-9.31,10.37-16,8.22-4.79-1.54-8.03-5.64-8.7-10.31"/>
        <polyline class="cls-2" points="44.19 106.98 45.87 103.22 49.62 104.9"/>
        <path class="cls-2" d="m63.31,105.06c-.94,1.01-2.28,1.63-3.76,1.63-2.84,0-5.14-2.3-5.14-5.14s2.3-5.14,5.14-5.14c1.42,0,2.71.58,3.64,1.51"/>
      </g>
      <circle class="cls-1" cx="12.51" cy="83.97" r="1.58"/>
      <circle class="cls-1" cx="12.51" cy="101.55" r="1.58"/>
      <circle class="cls-1" cx="12.51" cy="118.88" r="1.58"/>
      <circle class="cls-1" cx="105.2" cy="83.97" r="1.58"/>
      <circle class="cls-1" cx="105.2" cy="101.55" r="1.58"/>
      <circle class="cls-1" cx="105.2" cy="118.88" r="1.58"/>
      <path class="cls-2" d="m50.69,52.63c.71-1.1,3.69-5.24,9.21-6.14,7.51-1.23,12.58,4.69,12.81,4.97.39-.26,2.27-1.45,4.8-1,2.4.42,3.73,2.04,4.04,2.43.62-.38,3.69-2.16,7.32-1.16,3.65,1,6.4,4.4,6.87,8.57.4.02,3.72.23,5.8,3.15,1.98,2.77,1.27,5.8,1.16,6.23.43.16,1.54.66,2.32,1.87,1.15,1.8.63,3.71.54,4.02"/>
      <path class="cls-2" d="m13.99,75.56c-.19-.38-1.97-4.07,0-7.94,2.05-4.03,6.32-4.68,6.69-4.73.13-.65.75-3.52,3.48-5.53,2.97-2.18,6.2-1.7,6.78-1.61.08-.1.21-.27.38-.49"/>
      <path class="cls-2" d="m27.55,68.36c1.19.2,6.58.98,11.24-2.51,2.06-1.54,3.25-3.37,3.91-4.62,0,0,11.38,2.61,15.86-4.69,0,0-12.58-2.14-10.31-12.85,0,0-12.05-9.04.87-20.42,0,0-8.41-8.14-20.01,3.06,0,0-16.05,0-16.33,12.36,0,0,15.93-1.25,14.77,13.66.95.41,3.44,1.64,4.55,4.28,1.55,3.68-.17,8.67-4.55,11.72Z"/>
      <path class="cls-2" d="m12.78,38.7s6.43-5.18,14.06-1.7c0,0,3.41-6.29,10.78-4.82,0,0,3.68-8.84,11.51-8.9"/>
      <ellipse class="cls-1" cx="35.67" cy="50.27" rx="1.63" ry="2.88" transform="translate(-12.95 12.38) rotate(-16.71)"/>
      <ellipse class="cls-1" cx="41.63" cy="47.97" rx="1.63" ry="2.88" transform="translate(-12.04 14) rotate(-16.71)"/>
      <path class="cls-2" d="m29.11,26.34s-4.42-10.09-14.77-11.2"/>
      <path class="cls-2" d="m31.64,9.45c-.96.94-1.98,2.07-2.97,3.41-1.98,2.65-3.22,5.23-4.01,7.31,6.16-.88,11.29-4.62,13.27-9.9,1.31-3.49.89-6.72.47-8.54-.09-.4-.44-.69-.85-.71-1.82-.08-5.52.08-8.74,2.56-4.54,3.5-6.28,10.17-4.14,16.59"/>
      <path class="cls-2" d="m55.68,70.36s3.88-4.02,8.2,0"/>
      <line class="cls-2" x1="67.62" y1="58.41" x2="71.5" y2="61.56"/>
      <path class="cls-2" d="m79.23,59.98s5.09,3.35,8.93,0"/>
      <path class="cls-2" d="m83.69,61.46s-10-26.17,18.92-41.29"/>
      <path class="cls-2" d="m89.38,30.45s6.94,3.83,12.52,1.01c4.74-2.39,7.54-11.77,10.51-15.43.6-.74.24-1.86-.7-2.03-6.84-1.22-24.25-2.52-22.33,16.44Z"/>
      <path class="cls-2" d="m83.78,40.25s-8.31-8.79-11.49-10.35"/>
      <path class="cls-2" d="m81.25,37.66s3.85-16.04-17.03-14.84c-.84.05-1.4.88-1.1,1.67.99,2.63,2.94,7.83,3.35,8.94,1.67,4.51,6.38,8.84,14.78,4.23Z"/>
    </g>
  </g>
</svg>