<?xml version="1.0" encoding="UTF-8"?>
<svg id="Layer_2" data-name="Layer 2" xmlns="http://www.w3.org/2000/svg" viewBox="0 0 114.87 131.1">
  <defs>
    <style>
      .cls-1 {
        fill: none;
        stroke: #2d2d2d;
        stroke-linecap: round;
        stroke-linejoin: round;
        stroke-width: 2px;
      }
    </style>
  </defs>
  <g id="Icons">
    <g>
      <path class="cls-1" d="m99.32,73.49c0,7.81-18.58,14.14-41.51,14.14s-41.51-6.33-41.51-14.14c0-7.23,15.93-13.19,36.48-14.03,1.65-.07,3.32-.1,5.03-.1s3.38.04,5.03.1c20.55.85,36.48,6.81,36.48,14.03Z"/>
      <path class="cls-1" d="m62.85,65.49c12.96.69,22.79,4.01,22.79,8,0,4.5-12.45,8.14-27.82,8.14s-27.81-3.64-27.81-8.14c0-3.99,9.82-7.31,22.79-8"/>
      <path class="cls-1" d="m62.85,70.28c3.32.54,5.57,1.59,5.57,2.8,0,1.76-4.75,3.18-10.6,3.18s-10.6-1.43-10.6-3.18c0-1.21,2.25-2.27,5.57-2.8"/>
      <path class="cls-1" d="m99.32,73.49s-2.92,29.09,11.86,44.24c13.07,13.4-25.74-1.1-26.47,3.7-.47,3.11,1.69,6.24,0,8.09-3.08,3.38-14.51-9-29.29-8.14-12.38.72-23.2,10.5-24.8,8.29-.56-.77.62-2.15.05-5.53-.21-1.26-.41-2.69-1.43-3.55-1.37-1.16-3.59-1-6.07-.45-11.75,2.61-18.82,6.78-21.43,4.21-.11-.11-.24-.26-.38-.48-1.4-2.3,1.34-5.79,4.97-10.17,6.15-7.42,9.57-16.73,9.73-26.36l.23-13.85"/>
      <path class="cls-1" d="m29.15,83.72s1.16,18.1-1.97,24.52"/>
      <path class="cls-1" d="m41.42,125.43s7.05-8.54,6.42-22.41"/>
      <path class="cls-1" d="m71.21,98.53s1.77,14.29,6.26,19.51"/>
      <path class="cls-1" d="m87.82,83.26s-.7,14.25,1.17,18.87"/>
      <path class="cls-1" d="m57.82,72.09v-20.81s-11.7-15.26-23.04-18.62"/>
      <path class="cls-1" d="m57.82,51.27s3.64-25.82,24.5-36.88"/>
      <path class="cls-1" d="m53.85,46.63s6.8-25.43-29.43-22.56c-.77.06-1.29.81-1.09,1.55.97,3.58,3.79,13.02,7.85,17.51,9.47,10.48,22.67,3.49,22.67,3.49Z"/>
      <path class="cls-1" d="m62.72,35.95S44.25,8.37,94.13,1.01c.82-.12,1.53.59,1.4,1.41-.76,4.91-3.33,19.52-7.58,25.01-9.6,12.41-25.23,8.51-25.23,8.51Z"/>
      <line class="cls-1" x1="62.85" y1="70.28" x2="62.85" y2="65.49"/>
      <line class="cls-1" x1="52.79" y1="70.28" x2="52.79" y2="65.49"/>
    </g>
  </g>
</svg>