<?xml version="1.0" encoding="UTF-8"?>
<svg id="Layer_2" data-name="Layer 2" xmlns="http://www.w3.org/2000/svg" viewBox="0 0 98.38 126.5">
  <defs>
    <style>
      .cls-1 {
        fill: none;
        stroke: #2d2d2d;
        stroke-linecap: round;
        stroke-linejoin: round;
        stroke-width: 2px;
      }
    </style>
  </defs>
  <g id="Icons">
    <g>
      <line class="cls-1" x1="28.25" y1="117.39" x2="1" y2="117.39"/>
      <line class="cls-1" x1="41.81" y1="125.5" x2="24.7" y2="125.5"/>
      <line class="cls-1" x1="88.63" y1="125.5" x2="55.65" y2="125.5"/>
      <path class="cls-1" d="m82.73,50.62c0-7.3-5.91-13.21-13.21-13.21H13.79"/>
      <line class="cls-1" x1="5.82" y1="50.62" x2="5.82" y2="37.41"/>
      <rect class="cls-1" x="5.82" y="29.29" width="7.97" height="29.45" rx="3.98" ry="3.98"/>
      <path class="cls-1" d="m35.07,37.41h0c0-2.27,1.84-4.11,4.11-4.11h12.85c2.27,0,4.11,1.84,4.11,4.11h0"/>
      <path class="cls-1" d="m30.79,10.97c16.2,10.51,14.81,22.33,14.81,22.33,0,0-.22-17.45,17.78-25.28"/>
      <path class="cls-1" d="m44.24,19.14s3.16-17.11-25.27-14.49c-.81.07-1.32.9-1.03,1.66.97,2.54,3.2,7.76,6.28,11.49,4.22,5.09,8.3,6.36,13.99,5.49"/>
      <path class="cls-1" d="m48.97,15.76S45.8-1.35,74.24,1.27c.81.07,1.32.9,1.03,1.66-.97,2.54-3.2,7.76-6.28,11.49-4.22,5.09-8.3,6.36-13.99,5.49"/>
      <path class="cls-1" d="m35.33,50.62c2.05,3.55,5.89,5.93,10.28,5.93s8.23-2.39,10.28-5.93"/>
      <path class="cls-1" d="m82.73,50.62v7.74h-14.56v-1.36c0-1.64-.48-3.25-1.38-4.62l-.06-.09c-.69-1.04-1.85-1.67-3.09-1.67H13.79"/>
      <rect class="cls-1" x="64.93" y="58.37" width="21.05" height="6.76" rx="3.38" ry="3.38"/>
      <path class="cls-1" d="m64.44,87.78c-4.08,7.54,1.04,16.94,9.61,17.29.17,0,.35.01.52.01s.35,0,.52-.01c8.57-.35,13.68-9.75,9.61-17.29l-9.26-17.13c-.37-.69-1.36-.69-1.73,0l-9.26,17.13Z"/>
      <path class="cls-1" d="m75.09,105.07v-7.52s.39-5.49-7.15-5.82c.25.01-.2,2.94,1.99,4.76,2.24,1.87,4.94,1.12,5.16,1.06"/>
      <path class="cls-1" d="m75.09,97.55s-1.22-7.92,6.41-8.52c0,0,1.91,6.81-6.41,8.52Z"/>
      <path class="cls-1" d="m74.6,119.98c1.2-.11,2.4-.23,3.61-.35,3.74-.39,7.47-.84,11.18-1.46,1.88-.32,3.76-.67,5.61-1.1.59-.14,3.44-1.02,1.97-1.88-1.45-.85-3.35-1.02-4.98-1.28-5.71-.89-11.63-.45-17.39-.42-1.73.01-4.49.21-5.86-1.03-.05-.04-.09-.09-.13-.14-1.99-2.85-5.74-3.46-8.94-3.84-3.01-.35-6.07-.38-9.09-.09-2.73.27-5.78.5-8.2,1.92-1.39.81.27,2.08.94,2.83,0,0-13.74,1.13-8.93,4.25,4.82,3.11,24.5,2.59,24.5,2.59"/>
    </g>
  </g>
</svg>